<?xml version="1.0" encoding="UTF-8" standalone="no"?>
<!DOCTYPE svg PUBLIC "-//W3C//DTD SVG 1.1//EN"
 "http://www.w3.org/Graphics/SVG/1.1/DTD/svg11.dtd">
<!-- Generated by graphviz version 2.36.0 (20140111.2315)
 -->
<!-- Title: G Pages: 1 -->
<svg width="540pt" height="518pt"
 viewBox="0.00 0.00 540.00 518.00" xmlns="http://www.w3.org/2000/svg" xmlns:xlink="http://www.w3.org/1999/xlink">
<g id="graph0" class="graph" transform="scale(1 1) rotate(0) translate(4 514)">
<title>G</title>
<polygon fill="white" stroke="none" points="-4,4 -4,-514 536,-514 536,4 -4,4"/>
<g id="clust1" class="cluster"><title>cluster_Global</title>
<path fill="none" stroke="gray" d="M350,-8C350,-8 512,-8 512,-8 518,-8 524,-14 524,-20 524,-20 524,-490 524,-490 524,-496 518,-502 512,-502 512,-502 350,-502 350,-502 344,-502 338,-496 338,-490 338,-490 338,-20 338,-20 338,-14 344,-8 350,-8"/>
<text text-anchor="middle" x="431" y="-489.2" font-family="Times,serif" font-size="11.00" fill="gray">Global</text>
</g>
<g id="clust2" class="cluster"><title>cluster_\App</title>
<path fill="none" stroke="gray" d="M358,-16C358,-16 504,-16 504,-16 510,-16 516,-22 516,-28 516,-28 516,-462 516,-462 516,-468 510,-474 504,-474 504,-474 358,-474 358,-474 352,-474 346,-468 346,-462 346,-462 346,-28 346,-28 346,-22 352,-16 358,-16"/>
<text text-anchor="middle" x="431" y="-461.2" font-family="Times,serif" font-size="11.00" fill="gray">App</text>
</g>
<g id="clust3" class="cluster"><title>cluster_\App\Models</title>
<path fill="none" stroke="gray" d="M393,-158C393,-158 469,-158 469,-158 475,-158 481,-164 481,-170 481,-170 481,-434 481,-434 481,-440 475,-446 469,-446 469,-446 393,-446 393,-446 387,-446 381,-440 381,-434 381,-434 381,-170 381,-170 381,-164 387,-158 393,-158"/>
<text text-anchor="middle" x="431" y="-433.2" font-family="Times,serif" font-size="11.00" fill="gray">Models</text>
</g>
<g id="clust4" class="cluster"><title>cluster_\App\Controllers</title>
<path fill="none" stroke="gray" d="M366,-24C366,-24 496,-24 496,-24 502,-24 508,-30 508,-36 508,-36 508,-138 508,-138 508,-144 502,-150 496,-150 496,-150 366,-150 366,-150 360,-150 354,-144 354,-138 354,-138 354,-36 354,-36 354,-30 360,-24 366,-24"/>
<text text-anchor="middle" x="431" y="-137.2" font-family="Times,serif" font-size="11.00" fill="gray">Controllers</text>
</g>
<!-- \\App\\Models\\User -->
<g id="node1" class="node"><title>\\App\\Models\\User</title>
<polygon fill="none" stroke="black" points="458,-418 404,-418 404,-382 458,-382 458,-418"/>
<text text-anchor="middle" x="431" y="-397.2" font-family="Courier,monospace" font-size="11.00">User</text>
</g>
<!-- \\Illuminate\\Database\\Eloquent\\Model -->
<g id="node8" class="node"><title>\\Illuminate\\Database\\Eloquent\\Model</title>
<ellipse fill="none" stroke="black" cx="145" cy="-265" rx="144.075" ry="18"/>
<text text-anchor="middle" x="145" y="-261.3" font-family="Times,serif" font-size="14.00" fill="gray">\Illuminate\Database\Eloquent\Model</text>
</g>
<!-- \\App\\Models\\User&#45;&gt;\\Illuminate\\Database\\Eloquent\\Model -->
<g id="edge1" class="edge"><title>\\App\\Models\\User&#45;&gt;\\Illuminate\\Database\\Eloquent\\Model</title>
<path fill="none" stroke="black" d="M403.677,-393.969C384.976,-389.278 359.474,-382.052 338,-373 280.904,-348.932 219.178,-312.073 181.549,-288.251"/>
<polygon fill="none" stroke="black" points="183.292,-285.212 172.978,-282.787 179.529,-291.114 183.292,-285.212"/>
</g>
<!-- \\App\\Models\\Login -->
<g id="node2" class="node"><title>\\App\\Models\\Login</title>
<polygon fill="none" stroke="black" points="473,-364 389,-364 389,-328 473,-328 473,-364"/>
<text text-anchor="start" x="397" y="-349.2" font-family="Courier,monospace" font-size="11.00">«abstract»</text>
<text text-anchor="start" x="414" y="-337.2" font-family="Courier,monospace" font-size="11.00">Login</text>
</g>
<!-- \\App\\Models\\Exercise -->
<g id="node3" class="node"><title>\\App\\Models\\Exercise</title>
<polygon fill="none" stroke="black" points="466.5,-310 395.5,-310 395.5,-274 466.5,-274 466.5,-310"/>
<text text-anchor="middle" x="431" y="-289.2" font-family="Courier,monospace" font-size="11.00">Exercise</text>
</g>
<!-- \\App\\Models\\Exercise&#45;&gt;\\Illuminate\\Database\\Eloquent\\Model -->
<g id="edge2" class="edge"><title>\\App\\Models\\Exercise&#45;&gt;\\Illuminate\\Database\\Eloquent\\Model</title>
<path fill="none" stroke="black" d="M395.46,-288.716C364.129,-285.738 315.989,-281.161 270.326,-276.82"/>
<polygon fill="none" stroke="black" points="270.608,-273.331 260.322,-275.869 269.945,-280.299 270.608,-273.331"/>
</g>
<!-- \\App\\Models\\Workout -->
<g id="node4" class="node"><title>\\App\\Models\\Workout</title>
<polygon fill="none" stroke="black" points="463,-256 399,-256 399,-220 463,-220 463,-256"/>
<text text-anchor="middle" x="431" y="-235.2" font-family="Courier,monospace" font-size="11.00">Workout</text>
</g>
<!-- \\App\\Models\\Workout&#45;&gt;\\Illuminate\\Database\\Eloquent\\Model -->
<g id="edge3" class="edge"><title>\\App\\Models\\Workout&#45;&gt;\\Illuminate\\Database\\Eloquent\\Model</title>
<path fill="none" stroke="black" d="M398.795,-240.967C367.652,-243.927 317.757,-248.671 270.49,-253.165"/>
<polygon fill="none" stroke="black" points="270.075,-249.688 260.451,-254.119 270.737,-256.657 270.075,-249.688"/>
</g>
<!-- \\App\\Models\\Activity -->
<g id="node5" class="node"><title>\\App\\Models\\Activity</title>
<polygon fill="none" stroke="black" points="466.5,-202 395.5,-202 395.5,-166 466.5,-166 466.5,-202"/>
<text text-anchor="middle" x="431" y="-181.2" font-family="Courier,monospace" font-size="11.00">Activity</text>
</g>
<!-- \\App\\Models\\Activity&#45;&gt;\\Illuminate\\Database\\Eloquent\\Model -->
<g id="edge4" class="edge"><title>\\App\\Models\\Activity&#45;&gt;\\Illuminate\\Database\\Eloquent\\Model</title>
<path fill="none" stroke="black" d="M395.46,-193.851C350.463,-206.685 270.798,-229.406 213.59,-245.722"/>
<polygon fill="none" stroke="black" points="212.555,-242.378 203.898,-248.487 214.475,-249.11 212.555,-242.378"/>
</g>
<!-- \\App\\Controllers\\WorkoutsController -->
<g id="node6" class="node"><title>\\App\\Controllers\\WorkoutsController</title>
<polygon fill="none" stroke="black" points="500,-122 362,-122 362,-86 500,-86 500,-122"/>
<text text-anchor="middle" x="431" y="-101.2" font-family="Courier,monospace" font-size="11.00">WorkoutsController</text>
</g>
<!-- \\App\\Controllers\\SiteController -->
<g id="node7" class="node"><title>\\App\\Controllers\\SiteController</title>
<polygon fill="none" stroke="black" points="486.5,-68 375.5,-68 375.5,-32 486.5,-32 486.5,-68"/>
<text text-anchor="middle" x="431" y="-47.2" font-family="Courier,monospace" font-size="11.00">SiteController</text>
</g>
</g>
</svg>
