<?xml version="1.0" encoding="UTF-8" standalone="no"?>
<!DOCTYPE svg PUBLIC "-//W3C//DTD SVG 1.1//EN"
 "http://www.w3.org/Graphics/SVG/1.1/DTD/svg11.dtd">
<!-- Generated by graphviz version 2.36.0 (20140111.2315)
 -->
<!-- Title: G Pages: 1 -->
<svg width="184pt" height="302pt"
 viewBox="0.00 0.00 184.00 302.00" xmlns="http://www.w3.org/2000/svg" xmlns:xlink="http://www.w3.org/1999/xlink">
<g id="graph0" class="graph" transform="scale(1 1) rotate(0) translate(4 298)">
<title>G</title>
<polygon fill="white" stroke="none" points="-4,4 -4,-298 180,-298 180,4 -4,4"/>
<g id="clust1" class="cluster"><title>cluster_Global</title>
<path fill="none" stroke="gray" d="M20,-8C20,-8 156,-8 156,-8 162,-8 168,-14 168,-20 168,-20 168,-274 168,-274 168,-280 162,-286 156,-286 156,-286 20,-286 20,-286 14,-286 8,-280 8,-274 8,-274 8,-20 8,-20 8,-14 14,-8 20,-8"/>
<text text-anchor="middle" x="88" y="-273.2" font-family="Times,serif" font-size="11.00" fill="gray">Global</text>
</g>
<g id="clust2" class="cluster"><title>cluster_\App</title>
<path fill="none" stroke="gray" d="M28,-16C28,-16 148,-16 148,-16 154,-16 160,-22 160,-28 160,-28 160,-246 160,-246 160,-252 154,-258 148,-258 148,-258 28,-258 28,-258 22,-258 16,-252 16,-246 16,-246 16,-28 16,-28 16,-22 22,-16 28,-16"/>
<text text-anchor="middle" x="88" y="-245.2" font-family="Times,serif" font-size="11.00" fill="gray">App</text>
</g>
<g id="clust3" class="cluster"><title>cluster_\App\Models</title>
<path fill="none" stroke="gray" d="M50,-104C50,-104 126,-104 126,-104 132,-104 138,-110 138,-116 138,-116 138,-218 138,-218 138,-224 132,-230 126,-230 126,-230 50,-230 50,-230 44,-230 38,-224 38,-218 38,-218 38,-116 38,-116 38,-110 44,-104 50,-104"/>
<text text-anchor="middle" x="88" y="-217.2" font-family="Times,serif" font-size="11.00" fill="gray">Models</text>
</g>
<g id="clust4" class="cluster"><title>cluster_\App\Controllers</title>
<path fill="none" stroke="gray" d="M36,-24C36,-24 140,-24 140,-24 146,-24 152,-30 152,-36 152,-36 152,-84 152,-84 152,-90 146,-96 140,-96 140,-96 36,-96 36,-96 30,-96 24,-90 24,-84 24,-84 24,-36 24,-36 24,-30 30,-24 36,-24"/>
<text text-anchor="middle" x="88" y="-83.2" font-family="Times,serif" font-size="11.00" fill="gray">Controllers</text>
</g>
<!-- \\App\\Models\\User -->
<g id="node1" class="node"><title>\\App\\Models\\User</title>
<polygon fill="none" stroke="black" points="130,-202 46,-202 46,-166 130,-166 130,-202"/>
<text text-anchor="start" x="54" y="-187.2" font-family="Courier,monospace" font-size="11.00">«abstract»</text>
<text text-anchor="start" x="74" y="-175.2" font-family="Courier,monospace" font-size="11.00">User</text>
</g>
<!-- \\App\\Models\\Login -->
<g id="node2" class="node"><title>\\App\\Models\\Login</title>
<polygon fill="none" stroke="black" points="130,-148 46,-148 46,-112 130,-112 130,-148"/>
<text text-anchor="start" x="54" y="-133.2" font-family="Courier,monospace" font-size="11.00">«abstract»</text>
<text text-anchor="start" x="71" y="-121.2" font-family="Courier,monospace" font-size="11.00">Login</text>
</g>
<!-- \\App\\Controllers\\SiteController -->
<g id="node3" class="node"><title>\\App\\Controllers\\SiteController</title>
<polygon fill="none" stroke="black" points="143.5,-68 32.5,-68 32.5,-32 143.5,-32 143.5,-68"/>
<text text-anchor="middle" x="88" y="-47.2" font-family="Courier,monospace" font-size="11.00">SiteController</text>
</g>
</g>
</svg>
